<svg width="192" height="192" viewBox="0 0 512 512" fill="none" xmlns="http://www.w3.org/2000/svg">
  <rect width="512" height="512" rx="115" fill="#0f1c23"/>
  <defs>
    <linearGradient id="chatGradient" x1="0%" y1="0%" x2="100%" y2="100%">
      <stop offset="0%" style="stop-color:#00D4FF;stop-opacity:1" />
      <stop offset="100%" style="stop-color:#0088cc;stop-opacity:1" />
    </linearGradient>
  </defs>
  <path d="M140 200 C140 180, 150 170, 170 170 L280 170 C300 170, 310 180, 310 200 L310 260 C310 280, 300 290, 280 290 L200 290 L170 320 L170 290 C150 290, 140 280, 140 260 Z" 
        fill="url(#chatGradient)" opacity="0.9"/>
  <path d="M220 250 C220 235, 228 227, 243 227 L350 227 C365 227, 373 235, 373 250 L373 300 C373 315, 365 323, 350 323 L340 323 L340 348 L315 323 L243 323 C228 323, 220 315, 220 300 Z" 
        fill="url(#chatGradient)"/>
  <circle cx="210" cy="230" r="8" fill="white" opacity="0.9"/>
  <circle cx="240" cy="230" r="8" fill="white" opacity="0.9"/>
  <circle cx="270" cy="230" r="8" fill="white" opacity="0.9"/>
  <path d="M360 140 L350 170 L365 170 L345 210 L355 180 L340 180 Z" 
        fill="#00ed64" opacity="0.95"/>
</svg>
